<?xml version="1.0" encoding="UTF-8"?>
<svg version="1.1" xmlns="http://www.w3.org/2000/svg" width="225" height="225">
<path d="M0 0 C74.25 0 148.5 0 225 0 C225 74.25 225 148.5 225 225 C150.75 225 76.5 225 0 225 C0 150.75 0 76.5 0 0 Z " fill="#FDFCFB" transform="translate(0,0)"/>
<path d="M0 0 C0 0.66 0 1.32 0 2 C0.89074219 2.25523438 1.78148437 2.51046875 2.69921875 2.7734375 C7.99029258 4.73958801 11.74243277 8.3755763 16 12 C17.13501953 12.91458984 17.13501953 12.91458984 18.29296875 13.84765625 C27.43091025 21.46530306 34.81343159 31.31039461 40 42 C40.77150391 43.546875 40.77150391 43.546875 41.55859375 45.125 C45.75023767 53.80984495 48.41145721 61.33075552 48 71 C47.67 70.01 47.34 69.02 47 68 C46.34 68 45.68 68 45 68 C43.80712589 64.12315913 43 61.08378077 43 57 C-19.04 57 -81.08 57 -145 57 C-147.23797833 68.18989165 -148.05232691 79.62792288 -149 91 C-84.32 91 -19.64 91 47 91 C47 85.06 47 79.12 47 73 C47.99 73 48.98 73 50 73 C51.13922908 103.83367326 43.8162414 128.37805129 23.51953125 151.87109375 C5.29198118 170.93122359 -21.6724529 182.58720706 -47.98413086 183.29296875 C-76.83213623 183.55615046 -102.24508885 174.14601056 -123.078125 154.01953125 C-131.26868827 145.76592147 -137.93361693 136.46114283 -143 126 C-143.43828125 125.18917969 -143.8765625 124.37835938 -144.328125 123.54296875 C-154.81882786 102.97234355 -154.22807814 78.20601328 -148.00390625 56.53125 C-139.82810346 31.40975216 -122.61334362 11.7109503 -99.43359375 -0.80859375 C-95.59784048 -2.68645049 -91.66148854 -4.2966314 -87.69921875 -5.88671875 C-85.0914607 -6.90567902 -85.0914607 -6.90567902 -83.0859375 -8.04296875 C-57.62108396 -19.7262817 -23.74395446 -11.68758571 0 0 Z " fill="#2B2154" transform="translate(175,27)"/>
<path d="M0 0 C0 0.66 0 1.32 0 2 C0.89074219 2.25523438 1.78148437 2.51046875 2.69921875 2.7734375 C7.99029258 4.73958801 11.74243277 8.3755763 16 12 C17.13501953 12.91458984 17.13501953 12.91458984 18.29296875 13.84765625 C27.43091025 21.46530306 34.81343159 31.31039461 40 42 C40.77150391 43.546875 40.77150391 43.546875 41.55859375 45.125 C45.75023767 53.80984495 48.41145721 61.33075552 48 71 C47.67 70.01 47.34 69.02 47 68 C46.34 68 45.68 68 45 68 C43.80712589 64.12315913 43 61.08378077 43 57 C-18.71 57 -80.42 57 -144 57 C-137.88429066 34.57573242 -122.57842199 16.55776783 -102.73828125 4.7421875 C-99.92747425 3.28376093 -99.92747425 3.28376093 -99 1 C-99.66 0.67 -100.32 0.34 -101 0 C-98.97974095 -0.93873691 -96.9587636 -1.87592803 -94.9375 -2.8125 C-93.24947266 -3.59560547 -93.24947266 -3.59560547 -91.52734375 -4.39453125 C-90.36332031 -4.92433594 -89.19929688 -5.45414063 -88 -6 C-86.85144531 -6.5259375 -85.70289063 -7.051875 -84.51953125 -7.59375 C-57.31769807 -18.46240699 -25.33588767 -12.47118963 0 0 Z " fill="#2C2254" transform="translate(175,27)"/>
<path d="M0 0 C62.04 0 124.08 0 188 0 C190 7 190 7 190 11 C191.32 10.67 192.64 10.34 194 10 C194.042721 11.66611905 194.04063832 13.33382885 194 15 C193.67 15.33 193.34 15.66 193 16 C192.67 21.94 192.34 27.88 192 34 C127.32 34 62.64 34 -4 34 C-4 20.07843137 -4 20.07843137 -3.6875 15.875 C-3.62949219 14.98554687 -3.57148438 14.09609375 -3.51171875 13.1796875 C-2.78932816 8.69093987 -1.30642846 4.35476155 0 0 Z " fill="#352B5D" transform="translate(30,84)"/>
<path d="M0 0 C63.36 0 126.72 0 192 0 C191 9 191 9 190 12 C179.11 12 168.22 12 157 12 C156.34 13.98 155.68 15.96 155 18 C152.95785633 21.24140809 150.49697326 24.09889234 148 27 C147.04287109 28.11955078 147.04287109 28.11955078 146.06640625 29.26171875 C133.73827674 42.61525033 116.85175329 49.85142392 98.82910156 50.58691406 C75.55614319 50.90021934 58.92797761 41.78798506 42.45703125 25.91796875 C40 23 40 23 38.92285156 20.48730469 C37.55274205 17.43742571 36.39661662 15.34952331 34 13 C28.71023634 11.59461422 23.54439343 11.73404717 18.125 11.875 C16.65885314 11.87694363 15.19269298 11.87438404 13.7265625 11.8671875 C10.14940494 11.85939098 6.57625263 11.91302208 3 12 C2.49166409 10.75336669 1.99368855 9.50250613 1.5 8.25 C1.2215625 7.55390625 0.943125 6.8578125 0.65625 6.140625 C0 4 0 4 0 0 Z " fill="#3D3077" transform="translate(28,129)"/>
<path d="M0 0 C-2.89428672 1.92952448 -4.62640361 2.5199762 -7.9375 3.3125 C-34.50662696 10.31358747 -57.01217217 27.85615964 -71.33984375 51.09375 C-84.10608708 73.44218539 -87.63365248 99.85072838 -82 125 C-74.67889136 151.5852063 -57.92623803 174.45883505 -33.9765625 188.39453125 C-22.23874887 194.95917716 -10.24053192 199.44480963 3 202 C3 202.33 3 202.66 3 203 C-6.51722537 203.385255 -14.85868646 202.67378376 -24 200 C-25.02915527 199.70198486 -25.02915527 199.70198486 -26.07910156 199.39794922 C-41.44842698 194.8645755 -54.87177311 188.68099309 -67 178 C-68.22783203 176.98679688 -68.22783203 176.98679688 -69.48046875 175.953125 C-87.78499618 160.40137146 -101.02915574 136.07057791 -103 112 C-105.02881358 83.58491636 -97.66965278 57.75628879 -79 36 C-71.52963361 27.58473321 -63.51913287 21.03538657 -54 15 C-53.08089844 14.37351562 -52.16179688 13.74703125 -51.21484375 13.1015625 C-36.55350101 3.65726577 -17.28588744 -0.60182974 0 0 Z " fill="#F79622" transform="translate(103,11)"/>
<path d="M0 0 C63.36 0 126.72 0 192 0 C191 9 191 9 190 12 C128.29 12 66.58 12 3 12 C0 4 0 4 0 0 Z " fill="#FDFDFD" transform="translate(28,129)"/>
<path d="M0 0 C64.02 0 128.04 0 194 0 C194 3.3 194 6.6 194 10 C184.83390033 11.15405416 175.73181969 11.14139011 166.51245117 11.12939453 C164.755564 11.13075148 162.99867712 11.13253307 161.24179077 11.13470459 C156.49632365 11.13924227 151.75087839 11.13750494 147.00541091 11.1343255 C142.03097588 11.13178492 137.05654265 11.13414398 132.08210754 11.13571167 C123.73580592 11.13752756 115.38951317 11.1351414 107.04321289 11.13037109 C97.39555217 11.12492067 87.74791255 11.12669912 78.10025233 11.1321975 C69.80704575 11.13673453 61.51384552 11.13737655 53.2206381 11.13475883 C48.27144449 11.13320046 43.32226082 11.13299046 38.37306786 11.13629532 C33.72485616 11.13918288 29.07667173 11.13718201 24.42846298 11.13140106 C22.72285698 11.13007861 21.01724869 11.13045886 19.3116436 11.13266373 C16.9842359 11.13539519 14.65691568 11.13196972 12.32951355 11.12698364 C11.02710315 11.12660662 9.72469275 11.12622959 8.38281536 11.12584114 C5.44983298 11.01673384 2.84520292 10.68564419 0 10 C0 6.7 0 3.4 0 0 Z " fill="#FEFEFE" transform="translate(27,107)"/>
<path d="M0 0 C62.04 0 124.08 0 188 0 C190 7 190 7 190 11 C126.64 11 63.28 11 -2 11 C-1.34 7.37 -0.68 3.74 0 0 Z " fill="#FEFEFE" transform="translate(30,84)"/>
<path d="M0 0 C45.21 0 90.42 0 137 0 C136.34 3.3 135.68 6.6 135 10 C90.78 10 46.56 10 1 10 C0.67 6.7 0.34 3.4 0 0 Z " fill="#342965" transform="translate(56,118)"/>
<path d="M0 0 C1.33599921 0.32248257 2.66893378 0.65772583 4 1 C5.32 1 6.64 1 8 1 C8.66 1.185625 9.32 1.37125 10 1.5625 C11.99540116 2.15652929 11.99540116 2.15652929 13.9375 1.5 C16.54120606 0.86879853 18.39984086 1.46663402 21 2 C21.99 1.67 22.98 1.34 24 1 C24 1.66 24 2.32 24 3 C24.68707031 2.7834375 25.37414062 2.566875 26.08203125 2.34375 C26.98308594 2.0653125 27.88414062 1.786875 28.8125 1.5 C29.70582031 1.2215625 30.59914062 0.943125 31.51953125 0.65625 C34.44983203 -0.11901068 36.24890504 -0.37554748 39 1 C39.66 0.67 40.32 0.34 41 0 C41.99 0.66 42.98 1.32 44 2 C44.66 1.67 45.32 1.34 46 1 C46.99 1.495 46.99 1.495 48 2 C48 1.34 48 0.68 48 0 C48.66 0 49.32 0 50 0 C47.68173141 6.05399283 41.580795 8.4131685 36 11 C17.94232573 18.7558111 -1.89533175 18.22218831 -20 11 C-24.76060974 8.80525653 -28.84285687 6.17521308 -33 3 C-32.67 2.34 -32.34 1.68 -32 1 C-31.154375 1.185625 -30.30875 1.37125 -29.4375 1.5625 C-25.69020778 2.0394281 -22.71982407 1.58734064 -19 1 C-15.26650668 0.87555022 -12.54547357 0.81817548 -9 2 C-7.65938457 1.69728039 -6.32594105 1.36162029 -5 1 C-3.68 1 -2.36 1 -1 1 C-0.67 0.67 -0.34 0.34 0 0 Z " fill="#423581" transform="translate(116,163)"/>
<path d="M0 0 C63.36 0 126.72 0 192 0 C191 9 191 9 190 12 C128.29 12 66.58 12 3 12 C0 4 0 4 0 0 Z M6 1 C6.99 1.33 7.98 1.66 9 2 C9 2.66 9 3.32 9 4 C14.00133253 9.30237154 19.40457136 11.61618506 26.61843872 11.84178162 C29.63060176 11.88710647 32.63706541 11.84498525 35.64892578 11.79467773 C37.3154034 11.79270016 38.98188711 11.79381751 40.64836121 11.79777527 C45.14610189 11.79977388 49.64252097 11.7587817 54.139956 11.70975757 C58.84973505 11.66583238 63.55954844 11.66187342 68.26950073 11.65357971 C77.17657393 11.63187137 86.0830417 11.57449429 94.98984897 11.50413328 C105.13490485 11.42573976 115.2799905 11.38736567 125.42527413 11.35226524 C146.28385327 11.27920714 167.14188841 11.15617757 188 11 C190.03435531 7.27034861 191 5.33094958 191 1 C129.95 1 68.9 1 6 1 Z " fill="#8C86A6" transform="translate(28,129)"/>
<path d="M0 0 C9.9 0 19.8 0 30 0 C30.33 3.3 30.66 6.6 31 10 C75.22 10 119.44 10 165 10 C165 10.33 165 10.66 165 11 C111.21 11 57.42 11 2 11 C0 4 0 4 0 0 Z " fill="#2A1D59" transform="translate(26,118)"/>
<path d="M0 0 C-1.27032589 3.81097766 -2.51902451 4.14007875 -5.9375 6.125 C-11.94189634 9.81641876 -16.92523841 14.13414798 -22 19 C-22.63808594 19.58652344 -23.27617188 20.17304687 -23.93359375 20.77734375 C-28.73931615 25.32619012 -32.43998396 30.43747494 -36 36 C-36.515625 36.79792969 -37.03125 37.59585938 -37.5625 38.41796875 C-44.54588728 50.14787706 -48.91177467 64.3427186 -49 78 C-49.03738281 79.28648438 -49.07476562 80.57296875 -49.11328125 81.8984375 C-49.26835292 88.96587053 -48.93606502 95.64268326 -47.4453125 102.58203125 C-46.79660799 106.10438295 -46.86522528 109.42847004 -47 113 C-55.31462643 103.28795736 -53.81371834 86.0005765 -53 74 C-50.47368933 49.74741757 -37.83429685 26.12420565 -19.046875 10.55859375 C-5.18045113 0 -5.18045113 0 0 0 Z " fill="#17171F" transform="translate(76,28)"/>
<path d="M0 0 C2.64 0 5.28 0 8 0 C8.625 1.875 8.625 1.875 9 4 C8.34 4.66 7.68 5.32 7 6 C7.33 6.99 7.66 7.98 8 9 C65.42 9 122.84 9 182 9 C182.66 6.69 183.32 4.38 184 2 C183.01 1.01 183.01 1.01 182 0 C185.96 0 189.92 0 194 0 C194 3.3 194 6.6 194 10 C184.83390033 11.15405416 175.73181969 11.14139011 166.51245117 11.12939453 C164.755564 11.13075148 162.99867712 11.13253307 161.24179077 11.13470459 C156.49632365 11.13924227 151.75087839 11.13750494 147.00541091 11.1343255 C142.03097588 11.13178492 137.05654265 11.13414398 132.08210754 11.13571167 C123.73580592 11.13752756 115.38951317 11.1351414 107.04321289 11.13037109 C97.39555217 11.12492067 87.74791255 11.12669912 78.10025233 11.1321975 C69.80704575 11.13673453 61.51384552 11.13737655 53.2206381 11.13475883 C48.27144449 11.13320046 43.32226082 11.13299046 38.37306786 11.13629532 C33.72485616 11.13918288 29.07667173 11.13718201 24.42846298 11.13140106 C22.72285698 11.13007861 21.01724869 11.13045886 19.3116436 11.13266373 C16.9842359 11.13539519 14.65691568 11.13196972 12.32951355 11.12698364 C11.02710315 11.12660662 9.72469275 11.12622959 8.38281536 11.12584114 C5.44983298 11.01673384 2.84520292 10.68564419 0 10 C0 6.7 0 3.4 0 0 Z " fill="#C2C1CD" transform="translate(27,107)"/>
<path d="M0 0 C62.04 0 124.08 0 188 0 C190 7 190 7 190 11 C188.13950539 10.75035858 188.13950539 10.75035858 186 10 C184.86945152 8.18427277 184.86945152 8.18427277 183.76791382 5.9942627 C181.56700765 2.93764196 180.47130704 2.10632419 176.74626541 1.26597595 C172.38297707 1.01228618 168.08056541 1.00971113 163.71337891 1.09179688 C162.03763945 1.0940546 160.36189209 1.09278457 158.68615723 1.08825684 C154.14463931 1.08596346 149.60481522 1.13296061 145.06369066 1.1888485 C140.31520228 1.23889451 135.56667407 1.24356108 130.81796265 1.25305176 C121.82921584 1.27790658 112.84124837 1.34354148 103.8528446 1.42384768 C93.61842765 1.51329931 83.38397328 1.55726091 73.14926267 1.59741116 C52.09907363 1.68100867 31.04958593 1.82170202 10 2 C9.01 4.97 8.02 7.94 7 11 C4.03 11 1.06 11 -2 11 C-1.34 7.37 -0.68 3.74 0 0 Z " fill="#C4C3CF" transform="translate(30,84)"/>
<path d="M0 0 C0.99 0.33 1.98 0.66 3 1 C1.87858766 15.57836044 -13.46619582 31.96212068 -24 41 C-38.76133013 52.6372391 -59.56889286 64.76646429 -79 63 C-76.30376021 60.30376021 -73.94871285 60.08915718 -70.25 59.1875 C-57.28523168 55.97492823 -57.28523168 55.97492823 -45.2890625 50.34765625 C-43 49 -43 49 -40 49 C-40 48.34 -40 47.68 -40 47 C-38.42578125 45.81640625 -38.42578125 45.81640625 -36.3125 44.5625 C-35.5803125 44.12035156 -34.848125 43.67820313 -34.09375 43.22265625 C-32.50997682 42.29780363 -30.91397645 41.39384732 -29.3125 40.5 C-23.34648625 36.63015324 -16.21058812 29.42117624 -13 23 C-12.34 23 -11.68 23 -11 23 C-10.5359375 21.824375 -10.5359375 21.824375 -10.0625 20.625 C-9 18 -9 18 -8 16 C-7.34 16 -6.68 16 -6 16 C-5.814375 15.13375 -5.814375 15.13375 -5.625 14.25 C-4.79451008 11.26023628 -3.3877787 8.72993637 -1.9375 6 C-1.00499339 4.01065256 -0.45925984 2.14321257 0 0 Z " fill="#0F0F13" transform="translate(215,145)"/>
<path d="M0 0 C57.42 0 114.84 0 174 0 C174 0.33 174 0.66 174 1 C91.83 1.495 91.83 1.495 8 2 C8.99 3.65 9.98 5.3 11 7 C11 7.99 11 8.98 11 10 C7.04 10 3.08 10 -1 10 C-2 5 -2 5 0 0 Z " fill="#EFEEF2" transform="translate(35,107)"/>
<path d="M0 0 C60.06 0 120.12 0 182 0 C182 0.33 182 0.66 182 1 C124.91 1.33 67.82 1.66 9 2 C9 2.66 9 3.32 9 4 C11.33214148 5.20628008 13.49642139 6.1654738 16 7 C17.6875 9.0625 17.6875 9.0625 19 11 C16.36 11 13.72 11 11 11 C11 10.34 11 9.68 11 9 C10.34 9 9.68 9 9 9 C9 8.34 9 7.68 9 7 C8.2575 6.731875 7.515 6.46375 6.75 6.1875 C4.10938051 5.04723249 2.14447156 3.90619694 0 2 C0 1.34 0 0.68 0 0 Z " fill="#B6B2C6" transform="translate(28,129)"/>
<path d="M0 0 C5.09770828 -0.3718693 8.31465455 0.76636141 12.875 3 C14.02742187 3.556875 15.17984375 4.11375 16.3671875 4.6875 C17.23601562 5.120625 18.10484375 5.55375 19 6 C19 6.66 19 7.32 19 8 C19.89074219 8.25523438 20.78148437 8.51046875 21.69921875 8.7734375 C26.99029258 10.73958801 30.74243277 14.3755763 35 18 C35.75667969 18.60972656 36.51335937 19.21945313 37.29296875 19.84765625 C45.63673806 26.80325863 52.29821296 35.79439371 58 45 C58.25 47.875 58.25 47.875 58 50 C55 49 55 49 53.89453125 47.28515625 C53.35892578 46.18494141 53.35892578 46.18494141 52.8125 45.0625 C45.31246463 30.95529061 32.49603312 17.88396094 18 11 C18 10.34 18 9.68 18 9 C17.30390625 8.88398438 16.6078125 8.76796875 15.890625 8.6484375 C12.67844204 7.92786673 9.79915283 6.86418773 6.75 5.625 C5.69296875 5.20476563 4.6359375 4.78453125 3.546875 4.3515625 C1 3 1 3 0 0 Z " fill="#121317" transform="translate(156,21)"/>
<path d="M0 0 C0.66 0 1.32 0 2 0 C2.33 1.65 2.66 3.3 3 5 C3.66 5 4.32 5 5 5 C5.5259375 6.6396875 5.5259375 6.6396875 6.0625 8.3125 C9.05495223 16.28291778 13.83832666 23.19042228 20 29 C20.66666667 30.33333333 21.33333333 31.66666667 22 33 C25.94263162 37.29425152 30.37546141 40.67953258 35.0625 44.125 C35.76955078 44.64964844 36.47660156 45.17429688 37.20507812 45.71484375 C38.2347168 46.47861328 38.2347168 46.47861328 39.28515625 47.2578125 C39.93371582 47.74024414 40.58227539 48.22267578 41.25048828 48.71972656 C42.64271498 49.73854275 44.06479725 50.71653023 45.49609375 51.6796875 C45.99238281 52.11539063 46.48867187 52.55109375 47 53 C47 53.99 47 54.98 47 56 C30.15226079 49.98078976 14.39093089 32.45400403 6 17 C5.46246094 16.01644531 4.92492188 15.03289062 4.37109375 14.01953125 C-0.38925422 4.95167583 -0.38925422 4.95167583 0 0 Z " fill="#131318" transform="translate(29,142)"/>
<path d="M0 0 C0.495 0.99 0.495 0.99 1 2 C-0.72945653 1.85764543 -2.45855654 1.71095618 -4.1875 1.5625 C-5.63189453 1.44068359 -5.63189453 1.44068359 -7.10546875 1.31640625 C-10 1 -10 1 -12.30761719 0.49072266 C-17.50076793 -0.45579829 -22.79872058 -0.18465318 -28.0625 -0.1875 C-29.22716797 -0.19974609 -30.39183594 -0.21199219 -31.59179688 -0.22460938 C-39.27487828 -0.23745018 -46.46728789 0.53671407 -54 2 C-55.99918543 2.33818447 -57.99899026 2.67278276 -60 3 C-57.83375759 -0.24936361 -57.33461764 -0.52168604 -53.8125 -1.625 C-52.70841797 -1.98464844 -52.70841797 -1.98464844 -51.58203125 -2.3515625 C-35.93630651 -6.28074602 -14.94523312 -6.58359144 0 0 Z " fill="#0B0D0F" transform="translate(153,19)"/>
<path d="M0 0 C0.66 0.33 1.32 0.66 2 1 C2.40873378 12.06253696 2.49328045 22.81389117 0.1875 33.6875 C-0.0604834 34.879198 -0.0604834 34.879198 -0.31347656 36.0949707 C-1.20581487 39.93110117 -1.9286622 42.48620881 -5 45 C-5.66 45 -6.32 45 -7 45 C-7 44.34 -7 43.68 -7 43 C-16.9 43 -26.8 43 -37 43 C-37 42.67 -37 42.34 -37 42 C-26.44 42 -15.88 42 -5 42 C-2.50595238 30.77678572 -1.77399123 20.25018038 -1.39453125 8.82421875 C-1.35714844 7.83035156 -1.31976563 6.83648437 -1.28125 5.8125 C-1.25095703 4.91144531 -1.22066406 4.01039062 -1.18945312 3.08203125 C-1 1 -1 1 0 0 Z " fill="#23212E" transform="translate(223,99)"/>
<path d="M0 0 C-1.27032589 3.81097766 -2.51902451 4.14007875 -5.9375 6.125 C-15.2935228 11.87695176 -23.13493578 19.65227463 -30.56640625 27.6953125 C-32 29 -32 29 -34 29 C-32.5510955 19.95965218 -21.38475615 12.20851754 -14.37890625 7.08203125 C-4.31804124 0 -4.31804124 0 0 0 Z " fill="#18191B" transform="translate(76,28)"/>
<path d="M0 0 C0.33 1.32 0.66 2.64 1 4 C1.66 4 2.32 4 3 4 C2.98952637 4.6391333 2.97905273 5.2782666 2.96826172 5.93676758 C2.92611505 8.89530335 2.90049055 11.85377561 2.875 14.8125 C2.85824219 15.81732422 2.84148438 16.82214844 2.82421875 17.85742188 C2.78499712 23.95638503 3.27928197 29.59609415 4.5546875 35.56445312 C5.19997705 39.0937341 5.13501412 42.42212582 5 46 C-3.35495843 36.24084687 -1.67979455 19.05620701 -1 7 C-0.74092542 4.64463292 -0.39440853 2.33782475 0 0 Z " fill="#2E2E36" transform="translate(24,95)"/>
<path d="M0 0 C2.97 0 5.94 0 9 0 C8.36738317 3.69026484 7.42909641 6.42725897 6 10 C1.38 10 -3.24 10 -8 10 C-5.90023752 4.75059379 -5.5498463 4.44991724 -1 2 C-0.67 1.34 -0.34 0.68 0 0 Z " fill="#EDECF1" transform="translate(210,130)"/>
<path d="M0 0 C3.96 0 7.92 0 12 0 C12 3.3 12 6.6 12 10 C8.37 10 4.74 10 1 10 C0 8 0 8 0.9375 4.875 C1.4634375 3.451875 1.4634375 3.451875 2 2 C1.34 1.34 0.68 0.68 0 0 Z " fill="#DEDCE5" transform="translate(209,107)"/>
<path d="M0 0 C3.63 0 7.26 0 11 0 C9.95833333 2.57161458 8.91666667 5.14322917 7.875 7.71484375 C6.940402 9.74782158 6.940402 9.74782158 7 11 C4.03 11 1.06 11 -2 11 C-1.34 7.37 -0.68 3.74 0 0 Z " fill="#B6B2C6" transform="translate(30,84)"/>
<path d="M0 0 C8.20253165 1.82278481 8.20253165 1.82278481 10.3125 4.9375 C11 7 11 7 11 10 C7.04 10 3.08 10 -1 10 C-1.98484577 5.07577115 -2.03342293 4.18645898 0 0 Z " fill="#EEEDF2" transform="translate(35,107)"/>
<path d="M0 0 C3 1 3 1 4.09765625 2.75 C7.40496389 10.46258787 9.35839686 17.57767383 9 26 C8.67 25.01 8.34 24.02 8 23 C7.34 23 6.68 23 6 23 C5.49564306 21.0636296 4.99666126 19.12585854 4.5 17.1875 C4.2215625 16.10855469 3.943125 15.02960938 3.65625 13.91796875 C3 11 3 11 3 8 C2.34 8 1.68 8 1 8 C0.67 5.36 0.34 2.72 0 0 Z " fill="#1A1928" transform="translate(214,72)"/>
<path d="M0 0 C0 0.33 0 0.66 0 1 C3.96 1.33 7.92 1.66 12 2 C12 2.33 12 2.66 12 3 C10.83984375 3.04898437 9.6796875 3.09796875 8.484375 3.1484375 C-0.48422471 3.56397108 -9.16996581 4.28750852 -18 6 C-19.99923375 6.33789866 -21.99905934 6.67236059 -24 7 C-21.16182755 2.74274132 -17.80256326 2.27173139 -13 1 C-8.61077152 0.18166927 -4.46054016 -0.10879366 0 0 Z " fill="#1C1B26" transform="translate(117,15)"/>
<path d="M0 0 C2.14219021 0.7140634 4.284264 1.42845091 6.42578125 2.14453125 C8.06692224 2.68991801 9.70997942 3.22959533 11.35546875 3.76171875 C16.02760204 5.28156934 20.51362515 6.99544954 25 9 C25 9.33 25 9.66 25 10 C16.48754351 10.88059895 9.3320445 8.24538035 2 4 C0.58984375 1.796875 0.58984375 1.796875 0 0 Z " fill="#111313" transform="translate(77,196)"/>
<path d="M0 0 C2.97 0.33 5.94 0.66 9 1 C9 1.66 9 2.32 9 3 C11.33214148 4.20628008 13.49642139 5.1654738 16 6 C17.6875 8.0625 17.6875 8.0625 19 10 C16.36 10 13.72 10 11 10 C11 9.34 11 8.68 11 8 C10.34 8 9.68 8 9 8 C9 7.34 9 6.68 9 6 C8.2575 5.7525 7.515 5.505 6.75 5.25 C3.79875938 3.90852699 2.15185026 2.39094474 0 0 Z " fill="#DDDBE4" transform="translate(28,130)"/>
<path d="M0 0 C1.65 0 3.3 0 5 0 C4.70703125 2.01822917 4.4140625 4.03645833 4.12109375 6.0546875 C3.8315703 8.08140667 3.8315703 8.08140667 5 10 C2.36 10 -0.28 10 -3 10 C-3.33 9.34 -3.66 8.68 -4 8 C-3.22265625 6.0546875 -3.22265625 6.0546875 -2.0625 3.875 C-1.49208984 2.78832031 -1.49208984 2.78832031 -0.91015625 1.6796875 C-0.60980469 1.12539062 -0.30945312 0.57109375 0 0 Z " fill="#EFEEF2" transform="translate(40,85)"/>
<path d="M0 0 C-2.94114639 1.96076426 -4.93507725 2.64046226 -8.3125 3.5 C-12.26527129 4.53275324 -16.14271147 5.64473646 -20 7 C-20 6.01 -20 5.02 -20 4 C-20.66 3.34 -21.32 2.68 -22 2 C-14.57359158 0.39118425 -7.59498961 -0.26442904 0 0 Z " fill="#F79E34" transform="translate(103,11)"/>
<path d="M0 0 C7.92 0.33 15.84 0.66 24 1 C18.93685547 4.7973584 16.0896152 4.52374242 10 4 C6.93780409 3.54752628 3.91059583 3.07406953 1 2 C0.67 1.34 0.34 0.68 0 0 Z " fill="#151518" transform="translate(105,206)"/>
<path d="M0 0 C0.66 0.33 1.32 0.66 2 1 C1.38983051 6.49152542 1.38983051 6.49152542 -0.4375 8.875 C-2 10 -2 10 -4 10 C-4 9.34 -4 8.68 -4 8 C-13.9 8 -23.8 8 -34 8 C-34 7.67 -34 7.34 -34 7 C-23.44 7 -12.88 7 -2 7 C-1.67 5.02 -1.34 3.04 -1 1 C-0.67 0.67 -0.34 0.34 0 0 Z " fill="#1F1640" transform="translate(220,134)"/>
<path d="M0 0 C3.3 0 6.6 0 10 0 C9.125 8.625 9.125 8.625 8 12 C-2.56 12 -13.12 12 -24 12 C-24 11.67 -24 11.34 -24 11 C-14.1 11 -4.2 11 6 11 C6.33 9.35 6.66 7.7 7 6 C7.63437344 4.3207762 8.29289322 2.64991582 9 1 C6.03 1 3.06 1 0 1 C0 0.67 0 0.34 0 0 Z " fill="#827D99" transform="translate(210,129)"/>
<path d="M0 0 C1.68555192 0.38366129 3.37302695 0.75899171 5.0625 1.125 C6.375 1.41666667 7.6875 1.70833333 9 2 C9 2.33 9 2.66 9 3 C0.40400201 3.22588024 -7.60182604 2.91958262 -16 1 C-16 0.67 -16 0.34 -16 0 C-9.93433734 -2.32301974 -6.15789797 -1.69520906 0 0 Z " fill="#F8AD54" transform="translate(97,211)"/>
<path d="M0 0 C2.05078125 0.03255208 4.1015625 0.06510417 6.15234375 0.09765625 C5.49234375 2.73765625 4.83234375 5.37765625 4.15234375 8.09765625 C2.15279629 8.14019981 0.15192739 8.13846408 -1.84765625 8.09765625 C-2.84765625 7.09765625 -2.84765625 7.09765625 -2.97265625 4.09765625 C-2.80810474 0.14841991 -2.80810474 0.14841991 0 0 Z " fill="#EEEDF2" transform="translate(205.84765625,108.90234375)"/>
<path d="M0 0 C-1.29567138 3.88701415 -2.8637199 4.44755274 -6.3125 6.5625 C-7.27800781 7.16191406 -8.24351563 7.76132812 -9.23828125 8.37890625 C-11.46179787 9.6840822 -13.67504606 10.88998636 -16 12 C-14.64604395 7.59583959 -12.90705308 5.76311182 -9.125 3.1875 C-8.26132813 2.58292969 -7.39765625 1.97835938 -6.5078125 1.35546875 C-4 0 -4 0 0 0 Z " fill="#141518" transform="translate(76,28)"/>
<path d="M0 0 C3.93736123 -0.08696177 7.87447628 -0.14037835 11.8125 -0.1875 C13.49182617 -0.22520508 13.49182617 -0.22520508 15.20507812 -0.26367188 C16.27822266 -0.27333984 17.35136719 -0.28300781 18.45703125 -0.29296875 C19.9416687 -0.31653442 19.9416687 -0.31653442 21.45629883 -0.34057617 C24 0 24 0 27 3 C19.08 3.495 19.08 3.495 11 4 C11.66 3.34 12.32 2.68 13 2 C8.71 1.67 4.42 1.34 0 1 C0 0.67 0 0.34 0 0 Z " fill="#252332" transform="translate(114,206)"/>
<path d="M0 0 C4.67948398 -0.27771418 7.67583336 0.45162603 11.875 2.5 C13.32519531 3.19609375 13.32519531 3.19609375 14.8046875 3.90625 C15.52914062 4.2671875 16.25359375 4.628125 17 5 C16.34 5.66 15.68 6.32 15 7 C10.27268655 6.66233475 5.16725297 5.32729641 1 3 C0.67 2.01 0.34 1.02 0 0 Z " fill="#212125" transform="translate(156,21)"/>
<path d="M0 0 C3.12223757 1.56111878 6.10030512 3.06687008 9 5 C9 5.66 9 6.32 9 7 C9.66 7 10.32 7 11 7 C11 7.66 11 8.32 11 9 C8.03 9 5.06 9 2 9 C1.34 6.03 0.68 3.06 0 0 Z " fill="#AFAAC0" transform="translate(28,131)"/>
<path d="M0 0 C3.94727588 -0.17942163 6.5980513 -0.09350689 10 2 C10 2.66 10 3.32 10 4 C10.99 4.33 11.98 4.66 13 5 C13 5.66 13 6.32 13 7 C13.99 7.33 14.98 7.66 16 8 C16.33 8.66 16.66 9.32 17 10 C11.13998008 9.706999 7.14453354 6.96570849 3 3 C3 2.34 3 1.68 3 1 C2.01 0.67 1.02 0.34 0 0 Z " fill="#F1F0F4" transform="translate(34,130)"/>
<path d="M0 0 C0.66 0 1.32 0 2 0 C3.32388229 6.43028541 4.24794402 12.4294834 4 19 C1.54912735 16.08453885 0.46350898 13.79691393 -0.25 10.0625 C-0.50523438 8.81146484 -0.50523438 8.81146484 -0.765625 7.53515625 C-1.01829977 4.80205746 -0.66389792 2.65084954 0 0 Z " fill="#161422" transform="translate(25,122)"/>
<path d="M0 0 C4.55015893 1.51671964 6.50057264 5.16891053 9 9 C8 10 8 10 5.49609375 10.09765625 C3.98208984 10.08025391 3.98208984 10.08025391 2.4375 10.0625 C1.42558594 10.05347656 0.41367188 10.04445313 -0.62890625 10.03515625 C-1.41136719 10.02355469 -2.19382813 10.01195313 -3 10 C-1.625 8.5 -1.625 8.5 0 7 C0.66 7 1.32 7 2 7 C1.34 4.69 0.68 2.38 0 0 Z " fill="#E4E2E9" transform="translate(208,85)"/>
<path d="M0 0 C1.98 0 3.96 0 6 0 C5.39009109 3.55780196 4.4216319 6.6828589 3 10 C1.68 10 0.36 10 -1 10 C-0.67 6.7 -0.34 3.4 0 0 Z " fill="#D1CFDA" transform="translate(213,130)"/>
<path d="M0 0 C1.98 0 3.96 0 6 0 C5.835 0.7425 5.67 1.485 5.5 2.25 C4.88074304 5.19006578 4.88074304 5.19006578 5 9 C3.35 9.33 1.7 9.66 0 10 C0 6.7 0 3.4 0 0 Z " fill="#B9B5C8" transform="translate(27,107)"/>
<path d="M0 0 C-0.33 0.99 -0.66 1.98 -1 3 C-3.94140625 4.38671875 -3.94140625 4.38671875 -7.5625 5.6875 C-8.76003906 6.12449219 -9.95757812 6.56148437 -11.19140625 7.01171875 C-12.58166016 7.50091797 -12.58166016 7.50091797 -14 8 C-14 6.68 -14 5.36 -14 4 C-4.58997722 -0.59225513 -4.58997722 -0.59225513 0 0 Z " fill="#111117" transform="translate(92,21)"/>
<path d="M0 0 C-4.19412131 3.44517108 -7.38451164 4.14140424 -12.75 4.0625 C-13.54921875 4.05347656 -14.3484375 4.04445312 -15.171875 4.03515625 C-15.77515625 4.02355469 -16.3784375 4.01195312 -17 4 C-14.59327602 1.59327602 -12.88621451 1.20867825 -9.625 0.3125 C-8.66851562 0.04050781 -7.71203125 -0.23148438 -6.7265625 -0.51171875 C-4.02935339 -0.9947433 -2.55027856 -0.9004538 0 0 Z " fill="#090A0D" transform="translate(153,204)"/>
<path d="M0 0 C0.33 0 0.66 0 1 0 C1.20852314 6.40629424 1.1583195 11.92972642 -1 18 C-1.66 17.67 -2.32 17.34 -3 17 C-2.69268013 14.35346869 -2.37940678 11.707885 -2.0625 9.0625 C-1.97548828 8.30775391 -1.88847656 7.55300781 -1.79882812 6.77539062 C-1.11328125 1.11328125 -1.11328125 1.11328125 0 0 Z " fill="#0D0C1A" transform="translate(223,117)"/>
<path d="M0 0 C1.32 0.33 2.64 0.66 4 1 C4 3.64 4 6.28 4 9 C2.35 9.33 0.7 9.66 -1 10 C-2.15837626 5.94568308 -1.83691257 3.78187881 0 0 Z " fill="#DFDDE5" transform="translate(35,107)"/>
<path d="M0 0 C1.32 0 2.64 0 4 0 C4 3.3 4 6.6 4 10 C2.68 9.67 1.36 9.34 0 9 C0 6 0 3 0 0 Z " fill="#B8B4C8" transform="translate(217,107)"/>
<path d="M0 0 C4.36326151 0.86316695 6.81788037 2.89020127 10 6 C10 7.32 10 8.64 10 10 C7.1157546 9.65514457 6.1792182 9.21744593 4.296875 6.93359375 C3.78640625 6.10988281 3.2759375 5.28617187 2.75 4.4375 C2.22921875 3.61121094 1.7084375 2.78492187 1.171875 1.93359375 C0.78515625 1.29550781 0.3984375 0.65742187 0 0 Z " fill="#C8C5D3" transform="translate(210,85)"/>
<path d="M0 0 C-3.3730619 2.96829447 -6.62968884 4.06350475 -11 5 C-13.4375 4.625 -13.4375 4.625 -15 4 C-9.29096151 0.54452933 -6.62703209 -0.10688761 0 0 Z " fill="#0A0A0C" transform="translate(108,17)"/>
<path d="M0 0 C0.99 0.33 1.98 0.66 3 1 C2.54961229 5.84166786 1.40027839 8.49668287 -2 12 C-2.66 12 -3.32 12 -4 12 C-2.66666667 8 -1.33333333 4 0 0 Z " fill="#13131D" transform="translate(215,145)"/>
<path d="M0 0 C4.3177458 0.50797009 8.03302114 1.19682779 12 3 C12 3.33 12 3.66 12 4 C10.56260487 4.02712066 9.12506137 4.04645067 7.6875 4.0625 C6.48673828 4.07990234 6.48673828 4.07990234 5.26171875 4.09765625 C3 4 3 4 0 3 C0 2.01 0 1.02 0 0 Z " fill="#1C1D1E" transform="translate(90,202)"/>
<path d="M0 0 C3.63 0 7.26 0 11 0 C11 0.33 11 0.66 11 1 C9.9275 1.2475 8.855 1.495 7.75 1.75 C4.00350563 2.99883146 2.47926118 4.02488658 0 7 C-0.93423645 3.98968256 -1.04449911 3.13349732 0 0 Z " fill="#9993AE" transform="translate(30,84)"/>
<path d="M0 0 C0.33 1.32 0.66 2.64 1 4 C1.66 4 2.32 4 3 4 C2.67 9.61 2.34 15.22 2 21 C1.67 21 1.34 21 1 21 C0.67 14.07 0.34 7.14 0 0 Z " fill="#242036" transform="translate(24,95)"/>
<path d="M0 0 C0.66 0 1.32 0 2 0 C2.625 1.875 2.625 1.875 3 4 C2.34 4.66 1.68 5.32 1 6 C1.33 6.99 1.66 7.98 2 9 C0.35 9.33 -1.3 9.66 -3 10 C-2.25 3.375 -2.25 3.375 0 0 Z " fill="#CCC9D7" transform="translate(33,107)"/>
<path d="M0 0 C0.33 0.99 0.66 1.98 1 3 C0.01 3.33 -0.98 3.66 -2 4 C-2.33 4.99 -2.66 5.98 -3 7 C-4.32 6.67 -5.64 6.34 -7 6 C-5.61469317 1.84407951 -4.52657396 0 0 0 Z " fill="#EFEEF2" transform="translate(213,130)"/>
<path d="M0 0 C4.16507217 0.54005376 6.54445439 1.83065101 9.8125 4.4375 C10.60269531 5.05496094 11.39289062 5.67242187 12.20703125 6.30859375 C12.79871094 6.86675781 13.39039063 7.42492187 14 8 C14 8.66 14 9.32 14 10 C13.01 10 12.02 10 11 10 C11 9.34 11 8.68 11 8 C10.34 8 9.68 8 9 8 C9 7.34 9 6.68 9 6 C8.2575 5.7525 7.515 5.505 6.75 5.25 C3.79875938 3.90852699 2.15185026 2.39094474 0 0 Z " fill="#CCCAD7" transform="translate(28,130)"/>
<path d="M0 0 C1.32 0.33 2.64 0.66 4 1 C4.70074844 4.153368 5 6.72724974 5 10 C3.68 9.67 2.36 9.34 1 9 C1.33 6.36 1.66 3.72 2 1 C1.34 0.67 0.68 0.34 0 0 Z " fill="#CBC9D6" transform="translate(213,107)"/>
<path d="M0 0 C0.66 0.33 1.32 0.66 2 1 C1.01 3.97 0.02 6.94 -1 10 C-2.65 10 -4.3 10 -6 10 C-4.34832443 6.4213696 -2.21713508 3.25179812 0 0 Z " fill="#CDCAD7" transform="translate(38,85)"/>
<path d="M0 0 C3.3 0 6.6 0 10 0 C9.125 8.75 9.125 8.75 8 11 C7.34 11 6.68 11 6 11 C6.60990891 7.44219804 7.5783681 4.3171411 9 1 C6.03 1 3.06 1 0 1 C0 0.67 0 0.34 0 0 Z " fill="#928CA7" transform="translate(210,129)"/>
<path d="M0 0 C0.97582031 0.00902344 1.95164062 0.01804687 2.95703125 0.02734375 C3.69308594 0.03894531 4.42914063 0.05054688 5.1875 0.0625 C-0.1174691 3.59914607 -4.68686959 3.16511347 -10.8125 2.0625 C-10.8125 1.7325 -10.8125 1.4025 -10.8125 1.0625 C-7.13862505 0.20951624 -3.7677607 -0.04539471 0 0 Z " fill="#F8A340" transform="translate(97.8125,10.9375)"/>
<path d="M0 0 C0.66 0.33 1.32 0.66 2 1 C1.67 2.11375 1.34 3.2275 1 4.375 C-0.088643 7.69459717 -0.088643 7.69459717 0 10 C-1.32 9.67 -2.64 9.34 -4 9 C-2.68 6.03 -1.36 3.06 0 0 Z " fill="#E0DEE6" transform="translate(40,85)"/>
<path d="M0 0 C2.31 0 4.62 0 7 0 C7.33 2.31 7.66 4.62 8 7 C6.66382648 6.02471263 5.3311249 5.04466681 4 4.0625 C3.2575 3.51722656 2.515 2.97195312 1.75 2.41015625 C1.1725 1.94480469 0.595 1.47945313 0 1 C0 0.67 0 0.34 0 0 Z " fill="#ADA9BF" transform="translate(211,84)"/>
<path d="M0 0 C1.98 0 3.96 0 6 0 C6.66 1.65 7.32 3.3 8 5 C5.07120629 4.37240135 2.63904371 3.41377341 0 2 C0 1.34 0 0.68 0 0 Z " fill="#13131C" transform="translate(156,21)"/>
<path d="M0 0 C0.66 0 1.32 0 2 0 C1.40049704 3.68266103 0.75241109 7.34543185 0 11 C-0.66 11 -1.32 11 -2 11 C-1.125 3.375 -1.125 3.375 0 0 Z " fill="#090812" transform="translate(27,88)"/>
<path d="M0 0 C0 1.65 0 3.3 0 5 C-0.99 5.33 -1.98 5.66 -3 6 C-3.33 7.98 -3.66 9.96 -4 12 C-5.60156595 7.99608513 -4.4087561 4.92968808 -3 1 C-1 0 -1 0 0 0 Z " fill="#34343D" transform="translate(30,82)"/>
<path d="M0 0 C0.33 0 0.66 0 1 0 C1.08114106 1.77007714 1.13925505 3.54122098 1.1875 5.3125 C1.23970703 6.79169922 1.23970703 6.79169922 1.29296875 8.30078125 C1 11 1 11 -0.51171875 12.85546875 C-1.00285156 13.23316406 -1.49398437 13.61085937 -2 14 C-1.43393721 9.30976546 -0.81462495 4.65499974 0 0 Z " fill="#C9C9CA" transform="translate(224,122)"/>
<path d="M0 0 C6.75 0.75 6.75 0.75 9 3 C8.01 3 7.02 3 6 3 C6 3.66 6 4.32 6 5 C4.35 4.67 2.7 4.34 1 4 C1.66 3.34 2.32 2.68 3 2 C2.01 1.34 1.02 0.68 0 0 Z " fill="#45454B" transform="translate(150,18)"/>
<path d="M0 0 C1.48117801 0.28127421 2.95993249 0.57533732 4.4375 0.875 C5.67306641 1.11863281 5.67306641 1.11863281 6.93359375 1.3671875 C7.61550781 1.57601563 8.29742187 1.78484375 9 2 C9.33 2.66 9.66 3.32 10 4 C7.25 4.25 7.25 4.25 4 4 C1.625 2 1.625 2 0 0 Z " fill="#040507" transform="translate(144,17)"/>
<path d="M0 0 C0.33 0.66 0.66 1.32 1 2 C0.0625 4.625 0.0625 4.625 -1 7 C-2.32 6.67 -3.64 6.34 -5 6 C-5 5.34 -5 4.68 -5 4 C-3.37373596 2.61767557 -1.7074998 1.28062485 0 0 Z " fill="#DFDDE5" transform="translate(213,133)"/>
<path d="M0 0 C1 3 1 3 -0.4375 6.1875 C-1.2109375 7.5796875 -1.2109375 7.5796875 -2 9 C-2.99 8.67 -3.98 8.34 -5 8 C-3.35 5.36 -1.7 2.72 0 0 Z " fill="#B8B4C8" transform="translate(218,131)"/>
<path d="M0 0 C0.66 0 1.32 0 2 0 C3.4783226 2.95664519 3.06032783 5.74229737 3 9 C2.67 8.01 2.34 7.02 2 6 C1.34 6 0.68 6 0 6 C0 4.02 0 2.04 0 0 Z " fill="#161421" transform="translate(220,89)"/>
<path d="M0 0 C-0.99 1.485 -0.99 1.485 -2 3 C-4.97 2.67 -7.94 2.34 -11 2 C-11 1.67 -11 1.34 -11 1 C-7.26562152 0.12132271 -3.83225427 -0.08912219 0 0 Z " fill="#2F3034" transform="translate(108,205)"/>
<path d="M0 0 C0.99 0.33 1.98 0.66 3 1 C2.01 2.32 1.02 3.64 0 5 C-1.32 4.67 -2.64 4.34 -4 4 C-3.67 3.34 -3.34 2.68 -3 2 C-2.01 2 -1.02 2 0 2 C0 1.34 0 0.68 0 0 Z " fill="#0A0A0E" transform="translate(175,192)"/>
<path d="M0 0 C0.33 0 0.66 0 1 0 C1.33 2.31 1.66 4.62 2 7 C1.34 7 0.68 7 0 7 C-0.33 7.66 -0.66 8.32 -1 9 C-1.33 7.02 -1.66 5.04 -2 3 C-1.34 3 -0.68 3 0 3 C0 2.01 0 1.02 0 0 Z " fill="#39354A" transform="translate(220,82)"/>
<path d="M0 0 C1.32 0 2.64 0 4 0 C3.67 0.99 3.34 1.98 3 3 C1.35 3.33 -0.3 3.66 -2 4 C-1.34 2.68 -0.68 1.36 0 0 Z " fill="#08080C" transform="translate(72,28)"/>
</svg>
