<?xml version="1.0" encoding="UTF-8"?>
<svg version="1.1" xmlns="http://www.w3.org/2000/svg" width="460" height="324">
<path d="M0 0 C1.07820511 0.00639496 2.15641022 0.01278992 3.26728821 0.01937866 C6.79381927 0.04196019 10.32021867 0.0726516 13.84667969 0.10424805 C16.32468506 0.12351705 18.8026921 0.14257157 21.28070068 0.16142273 C26.46175074 0.20226355 31.6427416 0.24745426 36.82373047 0.29541016 C43.42446597 0.35591241 50.02521959 0.40290188 56.62608719 0.44624043 C61.74119287 0.48180895 66.85619808 0.52601615 71.97121429 0.57259178 C74.40295826 0.59346506 76.8347293 0.61141652 79.26651764 0.6262455 C114.4651744 0.85146009 149.10538808 5.02935464 175.47949219 30.9831543 C189.16614992 45.86515331 192.28922621 63.43098427 191.51855469 83.0534668 C190.419294 95.42362825 187.16542552 106.17768742 179.51855469 116.0534668 C178.88175781 116.8784668 178.24496094 117.7034668 177.58886719 118.5534668 C164.89089187 133.80964227 144.88561658 140.54285732 125.62402344 142.86206055 C124.58181641 142.95680664 124.58181641 142.95680664 123.51855469 143.0534668 C123.51855469 144.3734668 123.51855469 145.6934668 123.51855469 147.0534668 C124.48535156 147.23522461 125.45214844 147.41698242 126.44824219 147.60424805 C145.24296784 151.19664538 160.87447131 157.11011898 172.58105469 173.3034668 C181.86564976 188.05934111 186.17931954 205.14061247 190.63769531 221.81616211 C192.1276317 227.29192612 193.73010594 232.73431833 195.33105469 238.1784668 C197.01451487 243.91747186 197.01451487 243.91747186 197.80615234 246.64819336 C198.24827671 248.14093129 198.70823394 249.62865852 199.19580078 251.10717773 C200.51015116 255.18528743 200.41607853 256.56584757 199.51855469 261.0534668 C179.38855469 261.0534668 159.25855469 261.0534668 138.51855469 261.0534668 C136.45031323 256.22757006 135.01054579 252.57425353 133.90527344 247.6159668 C133.63005859 246.40231445 133.35484375 245.18866211 133.07128906 243.93823242 C132.78576172 242.65625977 132.50023437 241.37428711 132.20605469 240.0534668 C131.58935347 237.35453468 130.96593616 234.65716334 130.34277344 231.9597168 C130.11060623 230.95164978 130.11060623 230.95164978 129.87374878 229.92321777 C124.49489943 201.85505423 124.49489943 201.85505423 108.26464844 179.26049805 C97.81552593 172.94859156 87.35562552 171.60916932 75.31542969 171.54174805 C74.11162659 171.52379684 72.90782349 171.50584564 71.6675415 171.48735046 C67.8679136 171.4336882 64.06840808 171.3994935 60.26855469 171.3659668 C57.67348573 171.33275484 55.07843284 171.29826167 52.48339844 171.26245117 C46.16189376 171.17798746 39.84037234 171.10945334 33.51855469 171.0534668 C33.5207753 172.16624496 33.52299591 173.27902313 33.52528381 174.42552185 C33.54551424 184.8883881 33.56052635 195.3512504 33.57036686 205.81413174 C33.57559594 211.19380442 33.58269404 216.57346137 33.59399414 221.953125 C33.60482213 227.14021523 33.61083133 232.32729029 33.61343193 237.51439095 C33.61528634 239.4980296 33.61890725 241.48166738 33.62428474 243.46529961 C33.63149401 246.23355815 33.63254568 249.00175318 33.63208008 251.77001953 C33.63567535 252.59863998 33.63927063 253.42726044 33.64297485 254.2809906 C33.63260685 259.93941464 33.63260685 259.93941464 32.51855469 261.0534668 C30.81066188 261.15227925 29.09868776 261.18145646 27.38793945 261.18286133 C26.29332901 261.18601349 25.19871857 261.18916565 24.07093811 261.19241333 C22.87931564 261.1903891 21.68769318 261.18836487 20.45996094 261.1862793 C19.24533676 261.18723602 18.03071259 261.18819275 16.77928162 261.18917847 C14.20433501 261.18986057 11.62938669 261.18800421 9.05444336 261.18383789 C5.10168611 261.17849469 1.14904273 261.18377954 -2.80371094 261.19018555 C-5.2991539 261.18952468 -7.79459679 261.18824334 -10.29003906 261.1862793 C-11.4796373 261.18830353 -12.66923553 261.19032776 -13.8948822 261.19241333 C-15.54152611 261.18768509 -15.54152611 261.18768509 -17.22143555 261.18286133 C-18.19104721 261.18206573 -19.16065887 261.18127014 -20.15965271 261.18045044 C-22.48144531 261.0534668 -22.48144531 261.0534668 -24.48144531 260.0534668 C-24.81144531 222.7634668 -25.14144531 185.4734668 -25.48144531 147.0534668 C-46.20197957 157.90707998 -62.64094931 168.36422887 -79.48144531 184.0534668 C-80.68220703 185.15561523 -80.68220703 185.15561523 -81.90722656 186.2800293 C-89.44564636 193.46978215 -95.45029092 201.60660264 -101.48144531 210.0534668 C-102.15506104 210.97603271 -102.15506104 210.97603271 -102.84228516 211.91723633 C-112.34692094 224.97945338 -119.15540651 239.57606984 -123.82519531 255.03393555 C-124.48144531 257.0534668 -124.48144531 257.0534668 -125.48144531 258.0534668 C-127.44513684 258.1474735 -129.4122373 258.17090061 -131.37817383 258.16699219 C-132.63940567 258.16691666 -133.90063751 258.16684113 -135.2000885 258.16676331 C-136.58684325 258.1616559 -137.9735976 258.15643989 -139.36035156 258.15112305 C-140.7713974 258.14925881 -142.18244388 258.14783493 -143.5934906 258.14683533 C-147.31385067 258.14301059 -151.03417191 258.13318069 -154.7545166 258.12213135 C-158.54825312 258.11191627 -162.34199589 258.1073375 -166.13574219 258.10229492 C-173.58432762 258.09155838 -181.03288104 258.0744825 -188.48144531 258.0534668 C-185.65448539 239.88265295 -175.61504445 220.52201498 -164.48144531 206.0534668 C-163.23123466 204.28278218 -161.98124665 202.51194035 -160.73144531 200.7409668 C-148.62479792 184.26119582 -134.17366661 167.9687272 -117.48144531 156.0534668 C-116.49273437 155.33288086 -115.50402344 154.61229492 -114.48535156 153.86987305 C-104.35299491 146.65680283 -93.69856739 140.4376854 -82.48144531 135.0534668 C-82.48144531 134.0634668 -82.48144531 133.0734668 -82.48144531 132.0534668 C-83.43921875 132.02768555 -84.39699219 132.0019043 -85.38378906 131.9753418 C-109.609044 131.05827803 -131.45758984 123.7522814 -148.60644531 105.9909668 C-167.33299386 84.4389037 -175.70070094 56.16161774 -184.85644531 29.6784668 C-185.48160034 27.87031494 -185.48160034 27.87031494 -186.11938477 26.02563477 C-188.38731345 19.4081082 -190.53955131 12.77422556 -192.48144531 6.0534668 C-189.85823937 4.74186383 -187.91528285 4.92637054 -184.9777832 4.92407227 C-183.82641373 4.9209201 -182.67504425 4.91776794 -181.48878479 4.91452026 C-180.23983932 4.91654449 -178.99089386 4.91856873 -177.70410156 4.9206543 C-176.42667587 4.91969757 -175.14925018 4.91874084 -173.83311462 4.91775513 C-171.12707152 4.91707351 -168.42111821 4.91842725 -165.71508789 4.9230957 C-162.24703113 4.92878721 -158.77905186 4.92551668 -155.31099796 4.91952324 C-152.00452972 4.91503912 -148.69807082 4.91817977 -145.39160156 4.9206543 C-144.14468033 4.91863007 -142.89775909 4.91660583 -141.61305237 4.91452026 C-140.45853073 4.91767242 -139.30400909 4.92082458 -138.11450195 4.92407227 C-136.58799767 4.92526566 -136.58799767 4.92526566 -135.03065491 4.92648315 C-132.48144531 5.0534668 -132.48144531 5.0534668 -129.48144531 6.0534668 C-128.52908165 8.40433958 -127.78447228 10.62360714 -127.09863281 13.0534668 C-126.88616913 13.76897705 -126.67370544 14.4844873 -126.45480347 15.22167969 C-125.78362308 17.49528121 -125.13084659 19.77355791 -124.48144531 22.0534668 C-124.07320495 23.46891456 -123.6646831 24.88428117 -123.25585938 26.29956055 C-122.44455684 29.12049571 -121.63579373 31.94214732 -120.82910156 34.7644043 C-120.52576904 35.82546387 -120.52576904 35.82546387 -120.21630859 36.90795898 C-119.80999967 38.33735963 -119.40699838 39.76770464 -119.00732422 41.19897461 C-113.59011126 60.54931221 -106.62669887 82.64488915 -88.29394531 93.3034668 C-77.4912765 98.8251652 -66.38202178 101.12556646 -54.36425781 101.36987305 C-53.50710175 101.39065414 -52.64994568 101.41143524 -51.76681519 101.43284607 C-49.04676817 101.49787941 -46.32663014 101.55701021 -43.60644531 101.6159668 C-41.75487365 101.65919604 -39.90331097 101.7028117 -38.05175781 101.74682617 C-33.528412 101.853513 -29.00497524 101.95490873 -24.48144531 102.0534668 C-24.48366592 100.80287979 -24.48588654 99.55229279 -24.48817444 98.2638092 C-24.50840376 86.50592149 -24.52341644 74.74803728 -24.53325748 62.99013615 C-24.53848685 56.94458862 -24.54558545 50.89905509 -24.55688477 44.85351562 C-24.56771176 39.02452392 -24.57372175 33.19554571 -24.57632256 27.36654472 C-24.57817715 25.1372907 -24.5817984 22.90803745 -24.58717537 20.67878914 C-24.59438331 17.56806946 -24.59543636 14.45740631 -24.5949707 11.34667969 C-24.59856598 10.41520111 -24.60216125 9.48372253 -24.60586548 8.52401733 C-24.59549747 2.16751896 -24.59549747 2.16751896 -23.48144531 1.0534668 C-15.69070985 -0.0031873 -7.84722757 -0.0778402 0 0 Z M33.51855469 46.0534668 C33.42351218 48.57887681 33.39298311 51.07683806 33.4050293 53.60253906 C33.40488327 54.3927243 33.40473724 55.18290955 33.40458679 55.99703979 C33.40528612 58.62134502 33.41307942 61.24558015 33.42089844 63.86987305 C33.42276255 65.68448345 33.42418648 67.49909436 33.42518616 69.31370544 C33.42901189 74.09936909 33.43884265 78.88500259 33.44989014 83.6706543 C33.46010306 88.55020744 33.46468352 93.42976543 33.46972656 98.30932617 C33.48046487 107.89071966 33.49754196 117.47209072 33.51855469 127.0534668 C40.52535846 127.10466219 47.53211304 127.13940578 54.5390625 127.16333008 C56.91701052 127.17331604 59.2949465 127.18690949 61.67285156 127.2043457 C80.1958616 127.43485695 80.1958616 127.43485695 98.51855469 125.0534668 C99.62529541 124.83424561 99.62529541 124.83424561 100.75439453 124.6105957 C108.49811684 122.92425536 114.70264649 120.46980878 120.51855469 115.0534668 C121.24042969 114.4347168 121.96230469 113.8159668 122.70605469 113.1784668 C130.56464951 103.96494183 132.81779412 94.06411636 132.51855469 82.0534668 C131.6119515 73.46740132 129.61291449 65.47036932 123.51855469 59.0534668 C122.85855469 59.0534668 122.19855469 59.0534668 121.51855469 59.0534668 C121.51855469 58.3934668 121.51855469 57.7334668 121.51855469 57.0534668 C107.6000484 45.72899074 91.25441446 44.88843658 74.10449219 44.9206543 C72.96823395 44.91969757 71.83197571 44.91874084 70.6612854 44.91775513 C68.28314152 44.91707955 65.90499573 44.91889004 63.52685547 44.9230957 C59.86909944 44.92850295 56.21146344 44.92310425 52.55371094 44.91674805 C50.23730442 44.91740796 47.92089797 44.91868733 45.60449219 44.9206543 C44.50672455 44.91863007 43.40895691 44.91660583 42.27792358 44.91452026 C40.76967514 44.9192485 40.76967514 44.9192485 39.23095703 44.92407227 C37.89839371 44.92526566 37.89839371 44.92526566 36.53890991 44.92648315 C34.52188759 44.82968103 34.52188759 44.82968103 33.51855469 46.0534668 Z " fill="#EC39E1" transform="translate(228.4814453125,31.946533203125)"/>
<path d="M0 0 C1.15136948 -0.00315216 2.30273895 -0.00630432 3.48899841 -0.009552 C4.73794388 -0.00752777 5.98688934 -0.00550354 7.27368164 -0.00341797 C8.55110733 -0.00437469 9.82853302 -0.00533142 11.14466858 -0.00631714 C13.85071169 -0.00699875 16.55666499 -0.00564502 19.26269531 -0.00097656 C22.73075207 0.00471494 26.19873134 0.00144442 29.66678524 -0.00454903 C32.97325348 -0.00903315 36.27971239 -0.00589249 39.58618164 -0.00341797 C40.83310287 -0.0054422 42.08002411 -0.00746643 43.36473083 -0.009552 C44.51925247 -0.00639984 45.67377411 -0.00324768 46.86328125 0 C48.38978554 0.00119339 48.38978554 0.00119339 49.9471283 0.00241089 C52.49633789 0.12939453 52.49633789 0.12939453 55.49633789 1.12939453 C56.44870156 3.48026732 57.19331093 5.69953487 57.87915039 8.12939453 C58.09161407 8.84490479 58.30407776 9.56041504 58.52297974 10.29760742 C59.19416013 12.57120895 59.84693661 14.84948564 60.49633789 17.12939453 C60.90457825 18.54484229 61.31310011 19.9602089 61.72192383 21.37548828 C62.53322636 24.19642344 63.34198947 27.01807505 64.14868164 29.84033203 C64.45201416 30.9013916 64.45201416 30.9013916 64.76147461 31.98388672 C65.16778353 33.41328736 65.57078483 34.84363238 65.97045898 36.27490234 C71.38767195 55.62523994 78.35108434 77.72081688 96.68383789 88.37939453 C107.47768955 93.89658612 118.5680257 96.21155889 130.57836914 96.41064453 C132.33162436 96.44840425 134.08487957 96.48616469 135.83813477 96.52392578 C138.58803075 96.57776299 141.33795366 96.62994191 144.08789062 96.68164062 C146.75148158 96.73318637 149.41490524 96.79045889 152.07836914 96.84814453 C152.90746292 96.86171997 153.7365567 96.87529541 154.59077454 96.88928223 C160.38341598 97.01647262 160.38341598 97.01647262 161.49633789 98.12939453 C161.86179444 104.04051506 161.93874818 109.95334149 162.01123047 115.87451172 C162.0428604 117.8709284 162.09060474 119.8671575 162.15478516 121.86279297 C162.24606169 124.73883795 162.28484434 127.61149471 162.31274414 130.48876953 C162.35089737 131.37852478 162.3890506 132.26828003 162.42835999 133.18499756 C162.420369 135.73530355 162.324771 137.71480725 161.49633789 140.12939453 C159.09727081 142.43137702 156.50223578 143.76029061 153.49633789 145.12939453 C152.27983297 145.77619552 151.06574781 146.42760014 149.85571289 147.08642578 C148.65299385 147.70570443 147.44986035 148.32417873 146.24633789 148.94189453 C131.02471113 156.93837819 118.04139251 167.44195096 105.49633789 179.12939453 C104.29557617 180.23154297 104.29557617 180.23154297 103.07055664 181.35595703 C95.53213684 188.54570989 89.52749228 196.68253037 83.49633789 205.12939453 C82.82272217 206.05196045 82.82272217 206.05196045 82.13549805 206.99316406 C72.63086226 220.05538112 65.82237669 234.65199758 61.15258789 250.10986328 C60.49633789 252.12939453 60.49633789 252.12939453 59.49633789 253.12939453 C57.53264636 253.22340123 55.5655459 253.24682834 53.59960938 253.24291992 C52.33837753 253.24284439 51.07714569 253.24276886 49.7776947 253.24269104 C48.39093995 253.23758363 47.0041856 253.23236762 45.61743164 253.22705078 C44.2063858 253.22518654 42.79533932 253.22376267 41.3842926 253.22276306 C37.66393254 253.21893832 33.94361129 253.20910843 30.2232666 253.19805908 C26.42953008 253.18784401 22.63578731 253.18326524 18.84204102 253.17822266 C11.39345558 253.16748611 3.94490217 253.15041023 -3.50366211 253.12939453 C-0.67670219 234.95858068 9.36273876 215.59794271 20.49633789 201.12939453 C21.74654854 199.35870991 22.99653656 197.58786808 24.24633789 195.81689453 C36.35298529 179.33712355 50.80411659 163.04465494 67.49633789 151.12939453 C68.48504883 150.40880859 69.47375977 149.68822266 70.49243164 148.94580078 C80.62478829 141.73273056 91.27921581 135.51361313 102.49633789 130.12939453 C102.49633789 129.13939453 102.49633789 128.14939453 102.49633789 127.12939453 C101.53856445 127.10361328 100.58079102 127.07783203 99.59399414 127.05126953 C75.3687392 126.13420576 53.52019337 118.82820913 36.37133789 101.06689453 C17.64478934 79.51483143 9.27708227 51.23754547 0.12133789 24.75439453 C-0.50381714 22.94624268 -0.50381714 22.94624268 -1.14160156 21.1015625 C-3.40953024 14.48403593 -5.56176811 7.85015329 -7.50366211 1.12939453 C-4.88045617 -0.18220844 -2.93749964 0.00229827 0 0 Z " fill="#B4B3B4" transform="translate(43.503662109375,36.87060546875)"/>
<path d="M0 0 C1.07820511 0.00639496 2.15641022 0.01278992 3.26728821 0.01937866 C6.79381927 0.04196019 10.32021867 0.0726516 13.84667969 0.10424805 C16.32468506 0.12351705 18.8026921 0.14257157 21.28070068 0.16142273 C26.46175074 0.20226355 31.6427416 0.24745426 36.82373047 0.29541016 C43.42446597 0.35591241 50.02521959 0.40290188 56.62608719 0.44624043 C61.74119287 0.48180895 66.85619808 0.52601615 71.97121429 0.57259178 C74.40295826 0.59346506 76.8347293 0.61141652 79.26651764 0.6262455 C95.55054383 0.73043698 111.28647203 1.3111223 127.20605469 5.0534668 C127.95048828 5.2184668 128.69492187 5.3834668 129.46191406 5.5534668 C133.30018968 6.42844325 136.91520443 7.46145406 140.51855469 9.0534668 C137.60090468 10.9985668 135.89318184 11.50622996 132.51855469 12.0534668 C132.84855469 11.0634668 133.17855469 10.0734668 133.51855469 9.0534668 C116.93529518 4.36146518 101.29149004 3.30193495 84.10827494 3.34456801 C80.66070415 3.3477563 77.21332515 3.3224716 73.76583862 3.3006134 C67.26660917 3.26354641 60.76758851 3.25104906 54.2682637 3.247989 C46.88600415 3.24327389 39.50395201 3.2102263 32.12178445 3.17509115 C13.92078579 3.08933407 -4.28023416 3.04909805 -22.48144531 3.0534668 C-22.46891724 4.20048065 -22.45638916 5.34749451 -22.44348145 6.52926636 C-22.32337642 17.55326856 -22.20574391 28.57729501 -22.09029388 39.60134697 C-22.03092403 45.26346009 -21.97079969 50.92556269 -21.90869141 56.58764648 C-21.38464129 104.48440278 -21.49805611 152.34961351 -21.94500732 200.24700928 C-22.01768186 208.08819003 -22.08746242 215.92939702 -22.15776062 223.77059937 C-22.26350826 235.53157608 -22.37279911 247.29251491 -22.48144531 259.0534668 C4.24855469 258.5584668 4.24855469 258.5584668 31.51855469 258.0534668 C31.84855469 229.3434668 32.17855469 200.6334668 32.51855469 171.0534668 C32.84855469 171.0534668 33.17855469 171.0534668 33.51855469 171.0534668 C33.54167697 182.64035082 33.55946919 194.22722939 33.57036686 205.81413174 C33.57559594 211.19380442 33.58269404 216.57346137 33.59399414 221.953125 C33.60482213 227.14021523 33.61083133 232.32729029 33.61343193 237.51439095 C33.61528634 239.4980296 33.61890725 241.48166738 33.62428474 243.46529961 C33.63149401 246.23355815 33.63254568 249.00175318 33.63208008 251.77001953 C33.63567535 252.59863998 33.63927063 253.42726044 33.64297485 254.2809906 C33.63260685 259.93941464 33.63260685 259.93941464 32.51855469 261.0534668 C30.81066188 261.15227925 29.09868776 261.18145646 27.38793945 261.18286133 C26.29332901 261.18601349 25.19871857 261.18916565 24.07093811 261.19241333 C22.87931564 261.1903891 21.68769318 261.18836487 20.45996094 261.1862793 C19.24533676 261.18723602 18.03071259 261.18819275 16.77928162 261.18917847 C14.20433501 261.18986057 11.62938669 261.18800421 9.05444336 261.18383789 C5.10168611 261.17849469 1.14904273 261.18377954 -2.80371094 261.19018555 C-5.2991539 261.18952468 -7.79459679 261.18824334 -10.29003906 261.1862793 C-11.4796373 261.18830353 -12.66923553 261.19032776 -13.8948822 261.19241333 C-14.99264481 261.18926117 -16.09040741 261.18610901 -17.22143555 261.18286133 C-18.19104721 261.18206573 -19.16065887 261.18127014 -20.15965271 261.18045044 C-22.48144531 261.0534668 -22.48144531 261.0534668 -24.48144531 260.0534668 C-24.50431082 227.20281469 -24.5219431 194.35216464 -24.53251064 161.50150639 C-24.53376142 157.62730633 -24.53505573 153.75310629 -24.53637695 149.87890625 C-24.53663926 149.10758995 -24.53690157 148.33627365 -24.53717183 147.54158413 C-24.5415287 135.0359951 -24.54941633 122.53041064 -24.55859811 110.02482433 C-24.5679342 97.20256908 -24.57350083 84.38031623 -24.57553381 71.55805773 C-24.57690913 63.63961935 -24.58126021 55.72119391 -24.58936178 47.80275952 C-24.59524936 41.7412193 -24.59590439 35.67969031 -24.59455299 29.6181469 C-24.59482953 27.12393997 -24.59683731 24.62973259 -24.60065079 22.13552856 C-24.60558098 18.7464669 -24.6044461 15.35746185 -24.60169983 11.96839905 C-24.60461267 10.96744723 -24.60752551 9.96649541 -24.61052662 8.93521172 C-24.60853557 8.03450461 -24.60654452 7.1337975 -24.60449314 6.20579624 C-24.60487286 5.4224332 -24.60525258 4.63907016 -24.60564381 3.83196884 C-24.48144531 2.0534668 -24.48144531 2.0534668 -23.48144531 1.0534668 C-15.69070985 -0.0031873 -7.84722757 -0.0778402 0 0 Z " fill="#DA4CCD" transform="translate(228.4814453125,31.946533203125)"/>
<path d="M0 0 C0.33 0 0.66 0 1 0 C1.33 37.29 1.66 74.58 2 113 C19.82 113 37.64 113 56 113 C56.33 84.29 56.66 55.58 57 26 C57.33 26 57.66 26 58 26 C58.02312228 37.58688402 58.0409145 49.17376259 58.05181217 60.76066494 C58.05704125 66.14033762 58.06413935 71.51999458 58.07543945 76.8996582 C58.08626745 82.08674843 58.09227665 87.27382349 58.09487724 92.46092415 C58.09673165 94.4445628 58.10035256 96.42820058 58.10573006 98.41183281 C58.11293932 101.18009136 58.11399099 103.94828638 58.11352539 106.71655273 C58.11712067 107.54517319 58.12071594 108.37379364 58.12442017 109.2275238 C58.11405216 114.88594784 58.11405216 114.88594784 57 116 C55.29210719 116.09881245 53.58013307 116.12798966 51.86938477 116.12939453 C50.77477432 116.13254669 49.68016388 116.13569885 48.55238342 116.13894653 C47.36076096 116.1369223 46.16913849 116.13489807 44.94140625 116.1328125 C43.72678207 116.13376923 42.5121579 116.13472595 41.26072693 116.13571167 C38.68578032 116.13639377 36.110832 116.13453741 33.53588867 116.13037109 C29.58313142 116.12502789 25.63048804 116.13031274 21.67773438 116.13671875 C19.18229141 116.13605788 16.68684853 116.13477654 14.19140625 116.1328125 C13.00180801 116.13483673 11.81220978 116.13686096 10.58656311 116.13894653 C8.9399192 116.13421829 8.9399192 116.13421829 7.26000977 116.12939453 C6.2903981 116.12859894 5.32078644 116.12780334 4.3217926 116.12698364 C2 116 2 116 0 115 C0 77.05 0 39.1 0 0 Z " fill="#C64EBC" transform="translate(204,177)"/>
<path d="M0 0 C1.32 0.33 2.64 0.66 4 1 C-3.31114264 5.26861744 -10.63866308 8.00228661 -18.75 10.3125 C-19.63647217 10.56660645 -20.52294434 10.82071289 -21.4362793 11.08251953 C-26.62530529 12.51019319 -31.64395566 13.47062352 -37 14 C-37 15.32 -37 16.64 -37 18 C-35.98679687 18.19335938 -34.97359375 18.38671875 -33.9296875 18.5859375 C-32.57808432 18.84874923 -31.22652408 19.11178183 -29.875 19.375 C-29.20984375 19.50132812 -28.5446875 19.62765625 -27.859375 19.7578125 C-23.781339 20.5574274 -19.91146915 21.59869485 -16 23 C-23.1323448 25.37744827 -32.27156642 22.1389981 -39.29296875 19.9765625 C-41.56666318 18.67582198 -42.10920635 17.43272579 -43 15 C-43.125 11.75 -43.125 11.75 -43 9 C-39.14905138 7.51886592 -36.78105456 8.71283249 -33 10 C-32.01 9.67 -31.02 9.34 -30 9 C-29.01 9.33 -28.02 9.66 -27 10 C-26.236875 9.690625 -25.47375 9.38125 -24.6875 9.0625 C-21.62243489 7.85073007 -19.26631039 7.84807859 -16 8 C-16 7.34 -16 6.68 -16 6 C-14.35 6 -12.7 6 -11 6 C-11 5.34 -11 4.68 -11 4 C-7.12315913 2.80712589 -4.08378077 2 0 2 C0 1.34 0 0.68 0 0 Z " fill="#E73BDB" transform="translate(389,161)"/>
<path d="M0 0 C12.11011364 -0.04658061 24.22020555 -0.08199886 36.33039093 -0.10362434 C41.95515636 -0.11400958 47.57985998 -0.12807137 53.20458984 -0.15087891 C58.6446238 -0.17279654 64.08459872 -0.18460805 69.52467346 -0.18975449 C71.58802722 -0.19341659 73.65137817 -0.20056644 75.71470642 -0.21146011 C91.01947093 -0.28896431 105.72458379 0.48254679 120.6875 4 C121.43193359 4.165 122.17636719 4.33 122.94335938 4.5 C126.78163499 5.37497645 130.39664974 6.40798726 134 8 C131.08235 9.9451 129.37462715 10.45276317 126 11 C126.33 10.01 126.66 9.02 127 8 C123.58666198 7.17309016 120.16885103 6.36628428 116.75 5.5625 C115.80125 5.33240234 114.8525 5.10230469 113.875 4.86523438 C112.92109375 4.64287109 111.9671875 4.42050781 110.984375 4.19140625 C110.12553711 3.98717041 109.26669922 3.78293457 108.38183594 3.57250977 C96.20363223 1.51086613 83.796665 1.78734953 71.484375 1.68359375 C69.41643902 1.66298518 67.34850689 1.64198779 65.28057861 1.62062073 C59.87533711 1.56580268 54.47006018 1.51621827 49.0647583 1.46777344 C43.53402608 1.41726168 38.00334441 1.36173156 32.47265625 1.30664062 C21.64848083 1.19955267 10.82426125 1.09800109 0 1 C0 0.67 0 0.34 0 0 Z " fill="#C04DB8" transform="translate(235,33)"/>
<path d="M0 0 C7.31091757 -0.06972114 14.62176265 -0.12292288 21.93294621 -0.15543652 C25.32838302 -0.1710469 28.72359121 -0.19219932 32.11889648 -0.22631836 C36.02845459 -0.26535614 39.93792232 -0.27974753 43.84765625 -0.29296875 C45.05833267 -0.30845261 46.26900909 -0.32393646 47.51637268 -0.33988953 C53.75488651 -0.34112882 58.55497818 -0.19231079 64 3 C64.495 3.99 64.495 3.99 65 5 C58.40719657 4.11250723 58.40719657 4.11250723 56.10955811 3.47767639 C53.53564379 2.89485381 51.13636264 2.83705169 48.49707031 2.79467773 C46.84581146 2.7647599 46.84581146 2.7647599 45.16119385 2.73423767 C43.97878113 2.71752518 42.79636841 2.70081268 41.578125 2.68359375 C40.36300232 2.66281265 39.14787964 2.64203156 37.89593506 2.62062073 C34.01401427 2.55523172 30.1320258 2.49628949 26.25 2.4375 C23.61848258 2.39430468 20.98697201 2.35069006 18.35546875 2.30664062 C11.9037174 2.19956117 5.45189871 2.09777486 -1 2 C-0.67 1.34 -0.34 0.68 0 0 Z " fill="#CC49C1" transform="translate(263,201)"/>
<path d="M0 0 C13.97480334 6.77566222 20.11368558 25.27760033 25 39 C26.23979005 42.75063095 27.39148485 46.52114233 28.5 50.3125 C28.76748047 51.21403809 29.03496094 52.11557617 29.31054688 53.04443359 C29.66729492 54.31601318 29.66729492 54.31601318 30.03125 55.61328125 C30.24330078 56.36391846 30.45535156 57.11455566 30.67382812 57.88793945 C31.03518244 60.22781681 30.72576788 61.76548209 30 64 C29.77860352 63.25427734 29.55720703 62.50855469 29.32910156 61.74023438 C28.31032029 58.32450778 27.28026041 54.91228094 26.25 51.5 C25.90195312 50.32695312 25.55390625 49.15390625 25.1953125 47.9453125 C22.8948791 40.36240241 20.41842682 33.62764024 16 27 C15.835 25.80375 15.67 24.6075 15.5 23.375 C15.335 22.26125 15.17 21.1475 15 20 C14.34 19.67 13.68 19.34 13 19 C13 17.68 13 16.36 13 15 C12.34 15 11.68 15 11 15 C11 14.01 11 13.02 11 12 C10.34 12 9.68 12 9 12 C9 12.66 9 13.32 9 14 C8.34 14 7.68 14 7 14 C6.938125 12.4221875 6.938125 12.4221875 6.875 10.8125 C5.72418674 5.7982422 4.02417775 4.99672811 0 2 C0 1.34 0 0.68 0 0 Z " fill="#C546BC" transform="translate(388,193)"/>
<path d="M0 0 C2.375 1.0625 2.375 1.0625 5 3 C6.3125 6.6875 6.3125 6.6875 7 10 C7.66 10 8.32 10 9 10 C9.28875 11.134375 9.5775 12.26875 9.875 13.4375 C10.24625 14.613125 10.6175 15.78875 11 17 C11.66 17.33 12.32 17.66 13 18 C13.40729228 20.32156597 13.74438677 22.6568787 14 25 C14.66 25 15.32 25 16 25 C16 30.28 16 35.56 16 41 C13.66863532 37.50295298 13.08297858 34.22246249 12.25 30.1875 C9.95742073 19.81313448 6.77084172 10.3468135 0 2 C0 1.34 0 0.68 0 0 Z " fill="#CB44C1" transform="translate(342,215)"/>
<path d="M0 0 C0.66 0.66 1.32 1.32 2 2 C1.67 3.65 1.34 5.3 1 7 C-19.13 7 -39.26 7 -60 7 C-60 6.01 -60 5.02 -60 4 C-59.34 4.33 -58.68 4.66 -58 5 C-56.18281916 5.11957474 -54.36142165 5.1772468 -52.54052734 5.20532227 C-51.39949554 5.22526749 -50.25846375 5.24521271 -49.08285522 5.26576233 C-47.84637238 5.28247482 -46.60988953 5.29918732 -45.3359375 5.31640625 C-43.4424205 5.3475779 -43.4424205 5.3475779 -41.51065063 5.37937927 C-38.15367955 5.43377926 -34.79669811 5.48400236 -31.43963623 5.53222656 C-28.01438935 5.58245042 -24.58923171 5.63813186 -21.1640625 5.69335938 C-14.44277939 5.80061859 -7.72142956 5.9023744 -1 6 C-0.67 4.02 -0.34 2.04 0 0 Z " fill="#BF55B5" transform="translate(427,286)"/>
<path d="M0 0 C1.32 0.33 2.64 0.66 4 1 C-3.30052636 5.26241912 -10.65941329 8.03099162 -18.75 10.375 C-19.63647217 10.63748535 -20.52294434 10.8999707 -21.4362793 11.17041016 C-26.79980384 12.66615786 -31.4347928 13.27178919 -37 13 C-37 12.67 -37 12.34 -37 12 C-36.33613281 11.87882813 -35.67226563 11.75765625 -34.98828125 11.6328125 C-29.51600961 10.6188945 -29.51600961 10.6188945 -24.25 8.875 C-21.41620494 7.77296859 -19.01218208 7.85989851 -16 8 C-16 7.34 -16 6.68 -16 6 C-14.35 6 -12.7 6 -11 6 C-11 5.34 -11 4.68 -11 4 C-7.12315913 2.80712589 -4.08378077 2 0 2 C0 1.34 0 0.68 0 0 Z " fill="#C547BB" transform="translate(389,161)"/>
<path d="M0 0 C3.73579841 1.86789921 4.44367523 6.65980836 5.82421875 10.40234375 C9.14066507 20.55000839 9.25964532 30.44109014 9 41 C8.67 41 8.34 41 8 41 C7.34 32.42 6.68 23.84 6 15 C5.34 15 4.68 15 4 15 C4 14.01 4 13.02 4 12 C3.360625 11.79375 2.72125 11.5875 2.0625 11.375 C0 10 0 10 -0.8125 7.125 C-0.97708001 4.38199986 -0.88783992 2.56487088 0 0 Z " fill="#CA42BE" transform="translate(411,74)"/>
<path d="M0 0 C3.23165844 0.71730736 6.18707922 1.81315074 9.25 3.0625 C10.14203125 3.42472656 11.0340625 3.78695312 11.953125 4.16015625 C12.96632813 4.57587891 12.96632813 4.57587891 14 5 C14 5.66 14 6.32 14 7 C16.86724686 6.42655063 17.8614515 6.1385485 20 4 C20 4.66 20 5.32 20 6 C20.66 6 21.32 6 22 6 C21.67 6.99 21.34 7.98 21 9 C20.8509288 11.0745356 20.8509288 11.0745356 22 13 C19.70105405 11.85605334 17.41049695 10.69803988 15.125 9.52734375 C14.09375 9.00269531 13.0625 8.47804688 12 7.9375 C10.96875 7.41027344 9.9375 6.88304688 8.875 6.33984375 C6.53337117 5.24856836 4.51887953 4.49045491 2 4 C2 3.34 2 2.68 2 2 C1.34 2 0.68 2 0 2 C0 1.34 0 0.68 0 0 Z " fill="#C847C1" transform="translate(328,76)"/>
<path d="M0 0 C5.1367921 -0.19756893 9.32774216 0.41536943 14.25 1.875 C15.45140625 2.22304688 16.6528125 2.57109375 17.890625 2.9296875 C21 4 21 4 24 6 C21.36 6.66 18.72 7.32 16 8 C16.33 7.01 16.66 6.02 17 5 C8.585 3.02 8.585 3.02 0 1 C0 0.67 0 0.34 0 0 Z " fill="#C645BC" transform="translate(345,36)"/>
<path d="M0 0 C0.66 0.33 1.32 0.66 2 1 C-3.9470852 9.43497758 -3.9470852 9.43497758 -8.98046875 10.8203125 C-11.68279177 11.03705768 -14.29297862 11.12440356 -17 11 C-14.89245271 8.89245271 -13.48009234 8.27860833 -10.75 7.1875 C-6.45211181 5.34753171 -3.42426369 3.16085879 0 0 Z " fill="#CE48C4" transform="translate(350,145)"/>
<path d="M0 0 C2.54272475 0.45297947 5.08405982 0.91220179 7.625 1.375 C8.33785156 1.50132812 9.05070312 1.62765625 9.78515625 1.7578125 C13.99905953 2.53100576 17.95880171 3.53395015 22 5 C18.42306433 6.19231189 16.39256443 5.78150687 12.6875 5.1875 C11.02267578 4.93033203 11.02267578 4.93033203 9.32421875 4.66796875 C6.09343718 4.01877527 3.09892783 3.11111331 0 2 C0 1.34 0 0.68 0 0 Z " fill="#C644BF" transform="translate(351,179)"/>
<path d="M0 0 C1.13732426 3.40401948 0.83989957 5.77456664 0.0625 9.25 C-0.13214844 10.14203125 -0.32679688 11.0340625 -0.52734375 11.953125 C-0.68332031 12.62859375 -0.83929688 13.3040625 -1 14 C-1.61875 14.144375 -2.2375 14.28875 -2.875 14.4375 C-5.03258322 14.93152225 -5.03258322 14.93152225 -7 16 C-5.55377814 12.14340838 -3.78682503 8.52237006 -1.90234375 4.8671875 C-0.87997124 2.85335678 -0.87997124 2.85335678 0 0 Z " fill="#CF45C6" transform="translate(359,129)"/>
<path d="M0 0 C3.66786393 1.50349377 5.68910393 3.63728792 8.25 6.625 C8.95640625 7.44226563 9.6628125 8.25953125 10.390625 9.1015625 C10.92171875 9.72804688 11.4528125 10.35453125 12 11 C11.67 11.66 11.34 12.32 11 13 C7.90060313 10.93373542 6.63994476 9.27988952 5 6 C4.01 5.67 3.02 5.34 2 5 C0.8125 2.4375 0.8125 2.4375 0 0 Z " fill="#C745BC" transform="translate(397,58)"/>
<path d="M0 0 C4.06225548 0.57823096 6.84762346 1.89117737 10.3125 4.0625 C11.19550781 4.61035156 12.07851563 5.15820312 12.98828125 5.72265625 C13.65214844 6.14417969 14.31601562 6.56570312 15 7 C14.01 7.495 14.01 7.495 13 8 C12.2575 7.54625 11.515 7.0925 10.75 6.625 C8.06577202 4.79959569 8.06577202 4.79959569 4.8125 4.5625 C3.4203125 4.2840625 3.4203125 4.2840625 2 4 C0.625 1.9375 0.625 1.9375 0 0 Z " fill="#C747C0" transform="translate(373,185)"/>
<path d="M0 0 C0.99 0 1.98 0 3 0 C3.66 0.66 4.32 1.32 5 2 C4.625 5.125 4.625 5.125 4 8 C3.01 7.67 2.02 7.34 1 7 C-0.1875 3.9375 -0.1875 3.9375 -1 1 C-0.67 0.67 -0.34 0.34 0 0 Z " fill="#DB3FD0" transform="translate(347,173)"/>
<path d="M0 0 C1.32 0.33 2.64 0.66 4 1 C-1.18082051 4.34594658 -4.84777564 5.56826496 -11 6 C-11 5.34 -11 4.68 -11 4 C-7.12315913 2.80712589 -4.08378077 2 0 2 C0 1.34 0 0.68 0 0 Z " fill="#D442C7" transform="translate(389,161)"/>
<path d="M0 0 C3.21852831 0.63065757 5.50801069 1.78020695 8.25 3.5625 C8.95640625 4.01753906 9.6628125 4.47257812 10.390625 4.94140625 C11.18726563 5.46541016 11.18726563 5.46541016 12 6 C11.01 6.495 11.01 6.495 10 7 C7.96587579 6.07137808 5.96752828 5.06246527 4 4 C3.21625 3.608125 2.4325 3.21625 1.625 2.8125 C1.08875 2.544375 0.5525 2.27625 0 2 C0 1.34 0 0.68 0 0 Z " fill="#C947BE" transform="translate(380,47)"/>
<path d="M0 0 C0.99 0.33 1.98 0.66 3 1 C3.33 3.31 3.66 5.62 4 8 C2 6.25 2 6.25 0 4 C0 2.68 0 1.36 0 0 Z " fill="#D841CB" transform="translate(404,216)"/>
<path d="M0 0 C1 3 1 3 0.22265625 4.82421875 C-0.8515625 6.54947917 -1.92578125 8.27473958 -3 10 C-4 8 -4 8 -3.1875 5 C-2 2 -2 2 0 0 Z " fill="#C943C0" transform="translate(415,132)"/>
<path d="M0 0 C0.33 0.66 0.66 1.32 1 2 C1.66 2 2.32 2 3 2 C2.67 2.99 2.34 3.98 2 5 C1.8509288 7.0745356 1.8509288 7.0745356 3 9 C-0.75283733 7.54728878 -0.75283733 7.54728878 -1.875 5.0625 C-2 3 -2 3 0 0 Z " fill="#DB3DCE" transform="translate(347,80)"/>
<path d="M0 0 C1.45742463 -0.08096803 2.91612807 -0.13917774 4.375 -0.1875 C5.18710937 -0.22230469 5.99921875 -0.25710937 6.8359375 -0.29296875 C7.55007813 -0.19628906 8.26421875 -0.09960938 9 0 C9.66 0.99 10.32 1.98 11 3 C6.88425629 2.5251065 3.63616656 1.9789756 0 0 Z " fill="#C745BB" transform="translate(317,203)"/>
<path d="M0 0 C1.5 1 1.5 1 3 3 C3.27345479 5.71846235 3.13491285 8.25677199 3 11 C0.43383368 7.15075052 0.44902324 4.5650696 0 0 Z " fill="#C447C0" transform="translate(358,257)"/>
<path d="M0 0 C2.29633824 3.44450737 2.54016485 5.93812283 3 10 C0 8 0 8 -0.75 6.125 C-1.02298092 3.80466218 -0.71043724 2.21024918 0 0 Z " fill="#E33ED9" transform="translate(411,234)"/>
<path d="M0 0 C3.41021743 0.78697325 6.68885166 1.87119943 10 3 C10 3.33 10 3.66 10 4 C7.36 4 4.72 4 2 4 C2 3.34 2 2.68 2 2 C1.34 2 0.68 2 0 2 C0 1.34 0 0.68 0 0 Z " fill="#D940D0" transform="translate(328,76)"/>
<path d="M0 0 C2.31 0.33 4.62 0.66 7 1 C4.08235 2.9451 2.37462715 3.45276317 -1 4 C-0.67 2.68 -0.34 1.36 0 0 Z " fill="#D443CA" transform="translate(362,40)"/>
</svg>
